# xmcd CD database file
#
# Track frame offsets:
#	150
#	18652
#	30759
#	48190
#	63582
#	78503
#	96966
#	110293
#	126961
#	144387
#	163443
#	176972
#
# Disc length: 2641 seconds
#
# Revision: 0
# Processed by: cddbd v1.5PL3 Copyright (c) Steve Scherf et al.
# Submitted via: CDex 1.51
#
DISCID=a20a4f0c
DTITLE=Joe Nichols - Broken Hearts Ville
DYEAR=1900
DGENRE=Country
TTITLE0=The Impossible
TTITLE1=Joes Place
TTITLE2=Broken Hearts Ville
TTITLE3=She Only Smokes When She Drinks
TTITLE4=Everythings A Thing
TTITLE5=That Would Be Her
TTITLE6=Cool To Be A Fool
TTITLE7=Can't Hold A Halo To You
TTITLE8=You Can't Break The Fall
TTITLE9=You Ain't Heard Nothin' Yet
TTITLE10=Life Don't Have To Mean Nothin' At All
TTITLE11=Man With A Memory
EXTD=
EXTT0=
EXTT1=
EXTT2=
EXTT3=
EXTT4=
EXTT5=
EXTT6=
EXTT7=
EXTT8=
EXTT9=
EXTT10=
EXTT11=
PLAYORDER=
